<svg width="64" height="64" viewBox="0 0 64 64" fill="none" xmlns="http://www.w3.org/2000/svg">
<path d="M17.9878 10.6667H46.1688C46.1688 10.6667 43.8205 46.019 32.0784 46.019C26.3422 46.019 22.8478 37.5827 20.7738 28.9523C18.6022 19.9159 17.9878 10.6667 17.9878 10.6667Z" stroke="#78350F" stroke-width="1.5" stroke-linecap="round" stroke-linejoin="round"/>
<path d="M46.1685 10.6667C46.1685 10.6667 48.625 8.04623 50.6666 7.99999C54.6666 7.90943 55.4061 10.6667 55.4061 10.6667C56.189 12.2921 56.8151 16.5181 53.0578 20.4191C49.3002 24.32 45.0941 27.7333 43.3823 28.9523" stroke="#78350F" stroke-width="1.5" stroke-linecap="round" stroke-linejoin="round"/>
<path d="M17.9875 10.6667C17.9875 10.6667 15.428 8.01637 13.3333 8.00002C9.33333 7.9688 8.59384 10.6667 8.59384 10.6667C7.81101 12.2921 7.18477 16.5181 10.9423 20.4191C14.6997 24.32 19.0621 27.7333 20.7736 28.9525" stroke="#78350F" stroke-width="1.5" stroke-linecap="round" stroke-linejoin="round"/>
<path d="M22.6841 53.3334C22.6841 48.4572 32.0776 46.019 32.0776 46.019C32.0776 46.019 41.4715 48.4572 41.4715 53.3334H22.6841Z" stroke="#78350F" stroke-width="1.5" stroke-linecap="round" stroke-linejoin="round"/>
</svg>
