<svg width="19" height="16" viewBox="0 0 19 16" fill="none" xmlns="http://www.w3.org/2000/svg">
<path d="M7.33373 16C6.8033 16 6.29459 15.7893 5.91952 15.4142C5.54445 15.0391 5.33373 14.5304 5.33373 14C5.33373 13.4696 5.54445 12.9609 5.91952 12.5858C6.29459 12.2107 6.8033 12 7.33373 12C7.86417 12 8.37287 12.2107 8.74795 12.5858C9.12302 12.9609 9.33373 13.4696 9.33373 14C9.33373 14.5304 9.12302 15.0391 8.74795 15.4142C8.37287 15.7893 7.86417 16 7.33373 16ZM14.3337 16C13.8033 16 13.2946 15.7893 12.9195 15.4142C12.5444 15.0391 12.3337 14.5304 12.3337 14C12.3337 13.4696 12.5444 12.9609 12.9195 12.5858C13.2946 12.2107 13.8033 12 14.3337 12C14.8642 12 15.3729 12.2107 15.7479 12.5858C16.123 12.9609 16.3337 13.4696 16.3337 14C16.3337 14.5304 16.123 15.0391 15.7479 15.4142C15.3729 15.7893 14.8642 16 14.3337 16ZM1.29573 1.923C1.0461 1.91495 0.809375 1.81012 0.635632 1.63068C0.461889 1.45125 0.364746 1.21127 0.364746 0.9615C0.364746 0.711732 0.461889 0.471755 0.635632 0.292318C0.809375 0.11288 1.0461 0.00805181 1.29573 0L2.44673 0C3.34873 0 4.12873 0.626 4.32473 1.506L5.57773 7.148C5.77373 8.028 6.55373 8.654 7.45573 8.654H14.9677L16.4097 2.884H7.06473C6.81744 2.87272 6.58402 2.76654 6.41302 2.58755C6.24201 2.40857 6.14659 2.17055 6.14659 1.923C6.14659 1.67545 6.24201 1.43743 6.41302 1.25845C6.58402 1.07946 6.81744 0.973284 7.06473 0.962H16.4097C16.7021 0.961914 16.9906 1.02848 17.2533 1.15663C17.5161 1.28479 17.7461 1.47116 17.926 1.70158C18.1059 1.93201 18.2309 2.20041 18.2915 2.4864C18.3521 2.77238 18.3467 3.06842 18.2757 3.352L16.8337 9.12C16.7298 9.5362 16.4896 9.90568 16.1515 10.1697C15.8134 10.4337 15.3967 10.5771 14.9677 10.577H7.45573C6.58053 10.5771 5.73146 10.2787 5.04875 9.7311C4.36604 9.18348 3.89052 8.41938 3.70073 7.565L2.44673 1.923H1.29573Z" fill="white"/>
</svg>
